<?xml version="1.0" encoding="utf-8"?>
<!-- Generator: Adobe Illustrator 23.1.0, SVG Export Plug-In . SVG Version: 6.00 Build 0)  -->
<svg version="1.1" id="Layer_1" xmlns="http://www.w3.org/2000/svg" xmlns:xlink="http://www.w3.org/1999/xlink" x="0px" y="0px"
	 viewBox="0 0 756.48 209.05" style="enable-background:new 0 0 756.48 209.05;" xml:space="preserve">
<g>
	<path d="M739.49,110.23c-19.68,0-36.58,12.85-50.45,25.44l12.91-24.43h-17.71l-4.21,7.52c-3.2,5.76-7.84,10.99-12.05,15.95
		c-11.14,13.01-23.36,25.01-36.64,35.79c-15.68,12.59-47.3,34.93-68.96,34.93c-9.01,0-16.96-7.36-16.96-16.48
		c0-6.51,2.61-12.48,5.17-18.29c8.27-0.05,16.21-0.53,24.21-2.72c15.84-4.32,32.9-11.73,44.32-23.95
		c5.17-5.55,10.51-13.12,10.51-21.12c0-10.61-10.67-15.47-20-15.47c-28.96,0-57.44,32.37-74.88,52.69l-31.57,27.46
		c-7.63,6.61-19.09,15.31-29.44,15.31c-3.47,0-6.08-3.09-6.08-6.45c0-3.15,1.01-6.24,2.56-8.96l43.46-76.21h-17.55l-8.05,13.17
		c-2.93,4.8-5.87,9.6-9.17,14.19c-6.19,8.59-13.49,16.37-21.01,23.84c-10.4,10.35-21.28,20.64-33.17,29.22
		c-6.45,4.69-13.65,9.81-21.92,9.81c-3.68,0-8.96-1.97-8.96-6.35c0-3.41,1.76-6.83,3.41-9.76l43.94-76.15h26.19l1.44-3.41H442.5
		l22.66-39.52h-17.76l-13.12,22.4c-9.65,16.37-24.27,30.45-40.42,40.42c-2.61,1.6-5.87,3.84-9.07,3.84c-0.85,0-1.55-0.32-2.24-0.8
		c3.57-3.04,6.24-7.25,6.24-12.16c0-6.93-6.24-9.81-12.43-9.81c-11.2,0-21.92,4.69-31.36,10.35l5.17-9.28H331.2l-11.25,20.69
		c-12.11,22.35-30.18,40.1-50.08,55.57c-7.68,6.03-19.2,15.25-29.6,15.25c-4,0-8.37-2.56-8.37-6.99c0-3.84,1.87-7.68,3.73-10.93
		l41.92-73.6h-17.97l-9.55,16.64c-0.43-14.56-7.36-21.76-22.4-21.76c-28.53,0-55.09,22.4-71.46,43.89
		c-5.28,6.88-9.17,14.29-12.69,22.19c-21.92,14.67-53.06,35.36-80.05,35.36c-24.9,0-38.29-16.26-38.29-40.64
		c0-20.42,6.72-41.01,15.52-59.2c18.4-38.18,48.9-71.99,87.19-90.77c10.56-5.17,22.61-8.8,34.45-8.8c15.89,0,39.36,8.75,39.36,27.52
		c0,3.84-0.85,7.47-1.92,11.09l2.67,1.76c6.03-16.43,12.48-27.04,27.15-36.96l-2.67-2.77c-6.24,4.59-13.12,9.28-21.22,9.28
		c-2.29,0-4.8-0.21-6.88-1.39l-10.88-5.92c-7.52-4.16-16.58-5.28-25.06-5.28c-6.61,0-13.22,0.85-19.68,2.4
		c-23.68,5.76-46.24,17.6-65.01,33.06C53.89,61,33.25,86.28,19.17,114.44c-7.25,14.51-13.71,30.5-13.71,46.98
		c0,30.35,21.55,50.66,51.62,50.66c29.49,0,61.86-19.62,85.33-36.21c-1.23,4.11-2.4,8.32-2.4,12.69c0,13.6,11.36,22.88,24.53,22.88
		c20.16,0,38.4-14.29,51.73-28.21c-2.08,4.59-4.05,9.33-4.05,14.45c0,8.21,6.99,11.95,14.51,11.95c28,0,57.86-29.01,76.32-48.53
		l-27.41,47.89h18.67l38.5-66.98c4.43-7.73,9.39-15.25,17.12-19.94c7.68-4.64,17.44-9.12,26.61-9.12c3.15,0,7.84,2.29,7.84,6.03
		c0,1.12-0.37,2.24-0.75,3.25c-1.33-0.75-2.61-1.23-4.16-1.23c-5.39,0-10.24,4.37-10.24,9.87c0,5.49,4.43,8.64,9.49,8.64
		c8.32,0,15.68-5.71,21.92-10.56c7.25-5.65,14.13-11.63,20.8-17.87l-37.06,65.06c-3.41,5.97-8.11,12.85-8.11,20
		c0,8.59,8.11,13.07,15.73,13.07c12,0,23.15-6.24,32.69-13.01c17.33-12.27,32.48-27.36,46.77-43.04l-14.61,25.65
		c-3.09,5.39-7.36,11.09-7.36,17.55c0,9.55,7.25,12.69,16.11,12.69c23.46,0,47.2-24.16,63.46-39.2c-1.17,4.85-2.4,9.71-2.4,14.72
		c0,16.91,14.45,25.7,30.08,25.7c16.32,0,31.73-7.41,45.38-15.57c13.28-7.95,25.87-17.12,37.7-27.09
		c10.56-8.91,19.95-18.83,28.9-29.38l-41.01,70.77h18.19l25.28-43.36c10.08-17.33,23.41-33.12,40.8-43.46
		c7.68-4.58,16.91-9.07,26.08-9.07c4,0,6.45,1.6,8.11,5.01c-0.96-0.11-1.97-0.21-2.99-0.21c-5.07,0-10.93,4-10.93,9.49
		c0,3.47,3.47,6.72,6.88,6.72c6.51,0,11.89-7.15,11.89-13.28C751.01,114.23,745.95,110.23,739.49,110.23z M606.49,111.13
		c4.8,0,10.51,2.24,10.51,7.73c0,10.51-10.08,23.04-17.17,29.86c-11.25,10.83-27.62,18.83-43.46,18.83c-1.65,0-3.25-0.11-4.91-0.16
		C561.75,150.22,584.09,111.13,606.49,111.13z M170.79,205.42c-9.39,0-14.51-8-14.51-16.64c0-7.73,2.83-14.51,6.19-21.44
		c8.96-18.29,22.98-35.2,39.46-47.25c8.16-6.03,16.91-11.2,27.31-11.2c9.55,0,17.17,6.19,17.17,15.89
		c0,13.39-10.67,29.28-18.51,39.78C215.53,181.16,192.6,205.42,170.79,205.42z"/>
	<path d="M520.47,90.6c6.77,0,10.99-6.35,10.99-12.69c0-3.52-1.81-6.99-5.65-6.99c-6.08,0-11.95,7.95-11.95,13.76
		C513.86,88.63,516.79,90.6,520.47,90.6z"/>
</g>
</svg>
