<?xml version="1.0" encoding="utf-8"?>
<!-- Generator: Adobe Illustrator 23.1.0, SVG Export Plug-In . SVG Version: 6.00 Build 0)  -->
<svg version="1.1" id="Layer_1" xmlns="http://www.w3.org/2000/svg" xmlns:xlink="http://www.w3.org/1999/xlink" x="0px" y="0px"
	 viewBox="0 0 756.5 209.1" style="enable-background:new 0 0 756.5 209.1;" xml:space="preserve">
<style type="text/css">
	.st0{fill:#424242;}
</style>
<g>
	<path class="st0" d="M739.5,110.2c-19.7,0-36.6,12.8-50.5,25.4l12.9-24.4h-17.7l-4.2,7.5c-3.2,5.8-7.8,11-12,15.9
		c-11.1,13-23.4,25-36.6,35.8c-15.7,12.6-47.3,34.9-69,34.9c-9,0-17-7.4-17-16.5c0-6.5,2.6-12.5,5.2-18.3c8.3-0.1,16.2-0.5,24.2-2.7
		c15.8-4.3,32.9-11.7,44.3-23.9c5.2-5.6,10.5-13.1,10.5-21.1c0-10.6-10.7-15.5-20-15.5c-29,0-57.4,32.4-74.9,52.7l-31.6,27.5
		c-7.6,6.6-19.1,15.3-29.4,15.3c-3.5,0-6.1-3.1-6.1-6.4c0-3.1,1-6.2,2.6-9l43.5-76.2h-17.5l-8,13.2c-2.9,4.8-5.9,9.6-9.2,14.2
		c-6.2,8.6-13.5,16.4-21,23.8c-10.4,10.4-21.3,20.6-33.2,29.2c-6.5,4.7-13.6,9.8-21.9,9.8c-3.7,0-9-2-9-6.4c0-3.4,1.8-6.8,3.4-9.8
		l43.9-76.2h26.2l1.4-3.4h-26.3l22.7-39.5h-17.8l-13.1,22.4c-9.6,16.4-24.3,30.5-40.4,40.4c-2.6,1.6-5.9,3.8-9.1,3.8
		c-0.9,0-1.5-0.3-2.2-0.8c3.6-3,6.2-7.3,6.2-12.2c0-6.9-6.2-9.8-12.4-9.8c-11.2,0-21.9,4.7-31.4,10.3l5.2-9.3h-19L320,131.9
		c-12.1,22.4-30.2,40.1-50.1,55.6c-7.7,6-19.2,15.3-29.6,15.3c-4,0-8.4-2.6-8.4-7c0-3.8,1.9-7.7,3.7-10.9l41.9-73.6h-18l-9.6,16.6
		c-0.4-14.6-7.4-21.8-22.4-21.8c-28.5,0-55.1,22.4-71.5,43.9c-5.3,6.9-9.2,14.3-12.7,22.2c-21.9,14.7-53.1,35.4-80.1,35.4
		c-24.9,0-38.3-16.3-38.3-40.6c0-20.4,6.7-41,15.5-59.2c18.4-38.2,48.9-72,87.2-90.8c10.6-5.2,22.6-8.8,34.4-8.8
		c15.9,0,39.4,8.8,39.4,27.5c0,3.8-0.9,7.5-1.9,11.1l2.7,1.8c6-16.4,12.5-27,27.1-37l-2.7-2.8c-6.2,4.6-13.1,9.3-21.2,9.3
		c-2.3,0-4.8-0.2-6.9-1.4l-10.9-5.9c-7.5-4.2-16.6-5.3-25.1-5.3c-6.6,0-13.2,0.8-19.7,2.4c-23.7,5.8-46.2,17.6-65,33.1
		c-24.3,20.1-44.9,45.4-59,73.5c-7.3,14.5-13.7,30.5-13.7,47c0,30.4,21.5,50.7,51.6,50.7c29.5,0,61.9-19.6,85.3-36.2
		c-1.2,4.1-2.4,8.3-2.4,12.7c0,13.6,11.4,22.9,24.5,22.9c20.2,0,38.4-14.3,51.7-28.2c-2.1,4.6-4.1,9.3-4.1,14.4
		c0,8.2,7,11.9,14.5,11.9c28,0,57.9-29,76.3-48.5L275.6,209h18.7l38.5-67c4.4-7.7,9.4-15.3,17.1-19.9c7.7-4.6,17.4-9.1,26.6-9.1
		c3.1,0,7.8,2.3,7.8,6c0,1.1-0.4,2.2-0.8,3.3c-1.3-0.8-2.6-1.2-4.2-1.2c-5.4,0-10.2,4.4-10.2,9.9c0,5.5,4.4,8.6,9.5,8.6
		c8.3,0,15.7-5.7,21.9-10.6c7.3-5.7,14.1-11.6,20.8-17.9l-37.1,65.1c-3.4,6-8.1,12.9-8.1,20c0,8.6,8.1,13.1,15.7,13.1
		c12,0,23.1-6.2,32.7-13c17.3-12.3,32.5-27.4,46.8-43l-14.6,25.6c-3.1,5.4-7.4,11.1-7.4,17.6c0,9.6,7.3,12.7,16.1,12.7
		c23.5,0,47.2-24.2,63.5-39.2c-1.2,4.9-2.4,9.7-2.4,14.7c0,16.9,14.5,25.7,30.1,25.7c16.3,0,31.7-7.4,45.4-15.6
		c13.3-7.9,25.9-17.1,37.7-27.1c10.6-8.9,20-18.8,28.9-29.4l-41,70.8h18.2l25.3-43.4c10.1-17.3,23.4-33.1,40.8-43.5
		c7.7-4.6,16.9-9.1,26.1-9.1c4,0,6.5,1.6,8.1,5c-1-0.1-2-0.2-3-0.2c-5.1,0-10.9,4-10.9,9.5c0,3.5,3.5,6.7,6.9,6.7
		c6.5,0,11.9-7.2,11.9-13.3C751,114.2,746,110.2,739.5,110.2z M606.5,111.1c4.8,0,10.5,2.2,10.5,7.7c0,10.5-10.1,23-17.2,29.9
		c-11.3,10.8-27.6,18.8-43.5,18.8c-1.7,0-3.3-0.1-4.9-0.2C561.8,150.2,584.1,111.1,606.5,111.1z M170.8,205.4
		c-9.4,0-14.5-8-14.5-16.6c0-7.7,2.8-14.5,6.2-21.4c9-18.3,23-35.2,39.5-47.3c8.2-6,16.9-11.2,27.3-11.2c9.6,0,17.2,6.2,17.2,15.9
		c0,13.4-10.7,29.3-18.5,39.8C215.5,181.2,192.6,205.4,170.8,205.4z"/>
	<path class="st0" d="M520.5,90.6c6.8,0,11-6.3,11-12.7c0-3.5-1.8-7-5.7-7c-6.1,0-12,7.9-12,13.8C513.9,88.6,516.8,90.6,520.5,90.6z
		"/>
</g>
</svg>
